# xmcd
#
# Track frame offsets:
#	150
#	10572
#	23472
#	40927
#	54382
#	67865
#	80052
#	91720
#	105347
#	118507
#	131625
#	146187
#
# Disc length: 2101 seconds
#
# Revision: 0
# Processed by: cddbd v1.5.1PL0 Copyright (c) Steve Scherf et al.
# Submitted via: audiograbber 1.83.01
#
DISCID=8b08330c
DTITLE=Μιχάλης Μενιδιάτης - Το σχολείο της βιοπάλης
DYEAR=1900
DGENRE=
TTITLE0=Το σχολείο της βιοπάλης
TTITLE1=Εφτά φορές την μάζεψα
TTITLE2=Παράνομη αγάπη
TTITLE3=Βαρύ το ράσο
TTITLE4=Στο σπίτι μας που μπήκανε
TTITLE5=Ο δράκος
TTITLE6=Είναι να μην σου τύχει
TTITLE7=Χελιδονάκια
TTITLE8=Ο οίκτος και η αγάπη
TTITLE9=Χωρίς διάλογο
TTITLE10=Κουράγιο Παναγιώτη
TTITLE11=Το θαύμα
EXTD=
EXTT0=
EXTT1=
EXTT2=
EXTT3=
EXTT4=
EXTT5=
EXTT6=
EXTT7=
EXTT8=
EXTT9=
EXTT10=
EXTT11=
PLAYORDER=
